<?xml version="1.0"?>
<svg xmlns:rdf="http://www.w3.org/1999/02/22-rdf-syntax-ns#" xmlns="http://www.w3.org/2000/svg" xmlns:cc="http://creativecommons.org/ns#" xmlns:dc="http://purl.org/dc/elements/1.1/" xmlns:svg="http://www.w3.org/2000/svg" id="svg3757" viewBox="0 0 375 650" version="1.1">
  <defs id="defs3759">
    <filter id="filter4314" height="1.0926" width="1.3324" y="-.046292" x="-.16619" color-interpolation-filters="sRGB">
      <feGaussianBlur id="feGaussianBlur4316" stdDeviation="11.312985"/>
    </filter>
  </defs>
  <g id="layer1" fill-rule="evenodd" transform="translate(-245.21 -27.583)">
    <path id="path3767" d="m558.17 118.41-292.39-59.564v430.32l293.4 59.769c6.5854 1.3416 12.122 4.5033 12.122-9.1473v-9.3872s-0.98416-12.522 16.162-9.0289c16.82 3.4613 16.162-9.0289 16.162-9.0289l0.00005-113.29s0.14566-12.296-15.075-15.397c-15.209-3.0983-17.25-17.617-17.25-17.617v-232.34c0.43213-15.361-6.6964-14.183-13.132-15.302z" stroke="#000" stroke-width="1px" fill="#ffe17b"/>
    <path id="path4280" opacity=".86404" filter="url(#filter4314)" d="m484.78 237.08-156.34-151.75v430.5l109.37 167.77c3.5213 3.4177 6.4817 8.3392 6.4817-5.3171 0 0-11.92-9.523-11.92-29.76l40.578-69.544 6.9391-93.862s-0.50311-18.679 11.92-6.6208v-221.98c0.23106-15.231-3.5806-16.299-7.0218-19.447z" transform="matrix(1.2968 -.22866 0 .99311 -136.95 63.112)"/>
    <path id="path3769" d="m421.99 210.46-156.34-151.75v430.5l156.88 152.27c3.5213 3.4177 6.4817 8.3392 6.4817-5.3171 0 0-11.92-9.523-11.92-29.76v-147.9s-0.50311-18.679 11.92-6.6208v-221.98c0.23106-15.231-3.5806-16.299-7.0218-19.447z" stroke="#000" stroke-width=".73139px" fill="#ffe17b"/>
  </g>
  <metadata>
    <rdf:RDF>
      <cc:Work>
        <dc:format>image/svg+xml</dc:format>
        <dc:type rdf:resource="http://purl.org/dc/dcmitype/StillImage"/>
        <cc:license rdf:resource="http://creativecommons.org/licenses/publicdomain/"/>
        <dc:publisher>
          <cc:Agent rdf:about="http://openclipart.org/">
            <dc:title>Openclipart</dc:title>
          </cc:Agent>
        </dc:publisher>
        <dc:title>Folder</dc:title>
        <dc:date>2010-01-25T06:13:46</dc:date>
        <dc:description>a file folder</dc:description>
        <dc:source>http://openclipart.org/detail/29046/folder-by-majincline-29046</dc:source>
        <dc:creator>
          <cc:Agent>
            <dc:title>MajinCline</dc:title>
          </cc:Agent>
        </dc:creator>
        <dc:subject>
          <rdf:Bag>
            <rdf:li>clip art</rdf:li>
            <rdf:li>clipart</rdf:li>
            <rdf:li>dossier</rdf:li>
            <rdf:li>file</rdf:li>
            <rdf:li>folder</rdf:li>
            <rdf:li>image</rdf:li>
            <rdf:li>media</rdf:li>
            <rdf:li>office</rdf:li>
            <rdf:li>png</rdf:li>
            <rdf:li>public domain</rdf:li>
            <rdf:li>svg</rdf:li>
            <rdf:li>unchecked</rdf:li>
          </rdf:Bag>
        </dc:subject>
      </cc:Work>
      <cc:License rdf:about="http://creativecommons.org/licenses/publicdomain/">
        <cc:permits rdf:resource="http://creativecommons.org/ns#Reproduction"/>
        <cc:permits rdf:resource="http://creativecommons.org/ns#Distribution"/>
        <cc:permits rdf:resource="http://creativecommons.org/ns#DerivativeWorks"/>
      </cc:License>
    </rdf:RDF>
  </metadata>
</svg>
